<?xml version="1.0" encoding="UTF-8"?>
<svg width="24" height="24" viewBox="0 0 24 24" fill="none" xmlns="http://www.w3.org/2000/svg">
    <path d="M12 0C5.376 0 0 5.376 0 12C0 18.624 5.376 24 12 24C18.624 24 24 18.624 24 12C24 5.376 18.624 0 12 0ZM17.568 8.16C17.388 10.056 16.608 14.664 16.212 16.788C16.044 17.688 15.708 17.988 15.396 18.024C14.7 18.084 14.172 17.568 13.5 17.124C12.444 16.428 11.844 15.996 10.824 15.324C9.636 14.544 10.404 14.112 11.088 13.416C11.268 13.236 14.34 10.44 14.4 10.188C14.412 10.152 14.412 10.044 14.34 9.972C14.268 9.9 14.172 9.924 14.088 9.936C13.98 9.948 12.3 11.088 9.024 13.344C8.544 13.68 8.112 13.848 7.728 13.836C7.296 13.824 6.48 13.596 5.868 13.392C5.112 13.152 4.524 13.02 4.572 12.6C4.596 12.384 4.896 12.168 5.46 11.952C8.964 10.392 11.292 9.348 12.456 8.82C15.792 7.32 16.476 7.056 16.932 7.056C17.028 7.056 17.256 7.08 17.4 7.2C17.52 7.296 17.556 7.428 17.568 7.524C17.556 7.596 17.58 7.92 17.568 8.16Z" fill="#FFFFFF"/>
</svg>
